<?xml version="1.0" encoding="UTF-8"?>
<svg width="264px" height="72px" viewBox="0 0 264 72" version="1.1" xmlns="http://www.w3.org/2000/svg" xmlns:xlink="http://www.w3.org/1999/xlink">
    <!-- Generator: Sketch 45.2 (43514) - http://www.bohemiancoding.com/sketch -->
    <title>logo</title>
    <desc>Created with Sketch.</desc>
    <defs>
        <filter x="-2.3%" y="-6.2%" width="103.9%" height="118.8%" filterUnits="objectBoundingBox" id="filter-1">
            <feOffset dx="0" dy="2" in="SourceAlpha" result="shadowOffsetOuter1"></feOffset>
            <feGaussianBlur stdDeviation="1" in="shadowOffsetOuter1" result="shadowBlurOuter1"></feGaussianBlur>
            <feColorMatrix values="0 0 0 0 0   0 0 0 0 0   0 0 0 0 0  0 0 0 0.247905344 0" type="matrix" in="shadowBlurOuter1" result="shadowMatrixOuter1"></feColorMatrix>
            <feMerge>
                <feMergeNode in="shadowMatrixOuter1"></feMergeNode>
                <feMergeNode in="SourceGraphic"></feMergeNode>
            </feMerge>
        </filter>
    </defs>
    <g id="Boostrap-3-Grid" stroke="none" stroke-width="1" fill="none" fill-rule="evenodd">
        <g id="Артбордище" transform="translate(-146.000000, -2603.000000)">
            <g id="logo" filter="url(#filter-1)" transform="translate(150.000000, 2605.000000)">
                <path d="M61.3316208,19.5555556 C56.4889749,8.0642074 45.1425714,0 31.9175258,0 C14.289963,0 0,14.326888 0,32 C0,49.673112 14.289963,64 31.9175258,64 C45.1425714,64 56.4889749,55.9357926 61.3316208,44.4444444 L60.4408378,44.4444444 C55.6481282,55.4710514 44.6807077,63.1794872 31.9175258,63.1794872 C14.7419518,63.1794872 0.818398097,49.2199553 0.818398097,32 C0.818398097,14.7800447 14.7419518,0.820512821 31.9175258,0.820512821 C44.6807077,0.820512821 55.6481282,8.52894861 60.4408378,19.5555556 L61.3316208,19.5555556 Z" id="Combined-Shape" stroke="#444444" stroke-width="3"></path>
                <path d="M54.1439473,32.2361111 C54.1439473,30.1267256 54.8539112,28.3884617 56.2738603,27.0212674 C57.6938095,25.654073 59.6115778,24.9704861 62.0272229,24.9704861 C64.7891971,24.9704861 66.8757984,25.7734295 68.2870892,27.3793403 C69.4213169,28.6727495 69.9884222,30.2656155 69.9884222,32.1579861 C69.9884222,34.2847329 69.2849519,36.027337 67.8779901,37.3858507 C66.4710283,38.7443644 64.5251212,39.4236111 62.0402102,39.4236111 C59.8237043,39.4236111 58.0314783,38.8593806 56.6634786,37.7309028 C54.9837827,36.3333263 54.1439473,34.5017474 54.1439473,32.2361111 Z M59.4427553,32.2230903 C59.4427553,33.4557353 59.6916756,34.3671845 60.1895236,34.9574653 C60.6873716,35.547746 61.3129191,35.8428819 62.0661848,35.8428819 C62.8281087,35.8428819 63.4536561,35.5520862 63.9428459,34.9704861 C64.4320357,34.388886 64.6766269,33.4557356 64.6766269,32.1710069 C64.6766269,30.9730843 64.4298712,30.0811661 63.9363523,29.4952257 C63.4428334,28.9092853 62.8324376,28.6163194 62.1051466,28.6163194 C61.3345644,28.6163194 60.6981944,28.9136255 60.1960172,29.5082465 C59.6938401,30.1028676 59.4427553,31.0078064 59.4427553,32.2230903 Z M72.5728898,25.2829861 L77.5080541,25.2829861 L77.5080541,27.3012153 C78.2180287,26.4591972 78.9344862,25.8602448 79.6574481,25.5043403 C80.3804099,25.1484357 81.2527132,24.9704861 82.2743839,24.9704861 C83.3739786,24.9704861 84.2441173,25.1657967 84.884826,25.5564236 C85.5255348,25.9470506 86.0493496,26.528642 86.4562862,27.3012153 C87.287476,26.398433 88.0450594,25.7842898 88.7290593,25.4587674 C89.4130592,25.1332449 90.2572236,24.9704861 91.2615778,24.9704861 C92.7421345,24.9704861 93.8979904,25.4110199 94.7291801,26.2921007 C95.5603698,27.1731815 95.9759584,28.5512059 95.9759584,30.4262153 L95.9759584,39.1111111 L90.6771505,39.1111111 L90.6771505,31.2335069 C90.6771505,30.6085038 90.5559371,30.1440987 90.3135068,29.8402778 C89.9585195,29.3628448 89.5169566,29.1241319 88.9888048,29.1241319 C88.3654125,29.1241319 87.8632429,29.3498241 87.4822809,29.8012153 C87.101319,30.2526064 86.9108409,30.9774256 86.9108409,31.9756944 L86.9108409,39.1111111 L81.6120329,39.1111111 L81.6120329,31.4939236 C81.6120329,30.8862817 81.5774005,30.4739594 81.5081347,30.2569444 C81.3955777,29.9097205 81.2007706,29.6297754 80.9237073,29.4171007 C80.6466441,29.204426 80.3219655,29.0980903 79.9496617,29.0980903 C79.3435859,29.0980903 78.8457453,29.3281227 78.4561252,29.7881944 C78.066505,30.2482662 77.8716978,31.003467 77.8716978,32.0538194 L77.8716978,39.1111111 L72.5728898,39.1111111 L72.5728898,25.2829861 Z M99.1578407,44.3715278 L99.1578407,25.2829861 L104.105992,25.2829861 L104.105992,27.3272569 C104.789992,26.4678776 105.417704,25.8862862 105.989147,25.5824653 C106.759729,25.1744771 107.612552,24.9704861 108.54764,24.9704861 C110.391842,24.9704861 111.818264,25.6779443 112.826947,27.0928819 C113.83563,28.5078196 114.339965,30.256934 114.339965,32.3402778 C114.339965,34.6406365 113.790175,36.3962613 112.690581,37.6072049 C111.590986,38.8181484 110.201361,39.4236111 108.521666,39.4236111 C107.707792,39.4236111 106.965361,39.2847236 106.294348,39.0069444 C105.623335,38.7291653 105.023762,38.316843 104.495611,37.7699653 L104.495611,44.3715278 L99.1578407,44.3715278 Z M104.456649,32.2361111 C104.456649,33.3298666 104.686088,34.1414904 105.144974,34.6710069 C105.60386,35.2005235 106.183953,35.4652778 106.885269,35.4652778 C107.500003,35.4652778 108.01516,35.2113741 108.430755,34.703559 C108.84635,34.195744 109.054144,33.3342075 109.054144,32.1189236 C109.054144,30.9991263 108.837691,30.1766519 108.40478,29.6514757 C107.971869,29.1262995 107.443725,28.8637153 106.820333,28.8637153 C106.144991,28.8637153 105.582215,29.1284696 105.131987,29.6579861 C104.681759,30.1875026 104.456649,31.0468691 104.456649,32.2361111 Z M115.859476,30.1006944 L123.547942,30.1006944 L123.547942,34.2022569 L115.859476,34.2022569 L115.859476,30.1006944 Z M130.548083,29.7621528 L125.496033,29.2282986 C125.686514,28.3428775 125.961409,27.6462699 126.320725,27.1384549 C126.680042,26.6306398 127.197363,26.190106 127.872705,25.8168403 C128.357565,25.5477417 129.024239,25.3394105 129.872745,25.1918403 C130.721251,25.0442701 131.639009,24.9704861 132.626047,24.9704861 C134.210502,24.9704861 135.483243,25.0594609 136.444306,25.2374132 C137.405369,25.4153655 138.206243,25.7864555 138.846952,26.3506944 C139.297179,26.7413214 139.652161,27.2947013 139.911908,28.0108507 C140.171655,28.7270001 140.301526,29.410587 140.301526,30.0616319 L140.301526,36.1684028 C140.301526,36.8194477 140.342652,37.3294252 140.424905,37.6983507 C140.507159,38.0672762 140.686814,38.5381916 140.963877,39.1111111 L136.002738,39.1111111 C135.803599,38.7552066 135.673728,38.4839419 135.61312,38.297309 C135.552513,38.1106762 135.491906,37.8177103 135.431298,37.4184028 C134.73864,38.0868089 134.050322,38.5642347 133.366322,38.8506944 C132.431233,39.2326408 131.344642,39.4236111 130.106516,39.4236111 C128.461453,39.4236111 127.212522,39.0416705 126.359687,38.2777778 C125.506852,37.5138851 125.080441,36.5720542 125.080441,35.4522569 C125.080441,34.4019045 125.387803,33.5381978 126.002537,32.8611111 C126.617271,32.1840244 127.751482,31.6805572 129.405203,31.3506944 C131.387937,30.9513869 132.673664,30.6714418 133.262423,30.5108507 C133.851183,30.3502596 134.474566,30.1397582 135.132591,29.8793403 C135.132591,29.2282954 134.998391,28.7725707 134.729986,28.5121528 C134.46158,28.2517348 133.989714,28.1215278 133.314373,28.1215278 C132.44855,28.1215278 131.799193,28.2604153 131.366281,28.5381944 C131.028611,28.7552094 130.755881,29.1631914 130.548083,29.7621528 Z M135.132591,32.5486111 C134.4053,32.8090291 133.647717,33.0390615 132.859818,33.2387153 C131.786198,33.525175 131.106537,33.8072903 130.820816,34.0850694 C130.526436,34.3715292 130.379249,34.6970468 130.379249,35.0616319 C130.379249,35.4783007 130.524272,35.8190091 130.814322,36.0837674 C131.104373,36.3485256 131.530784,36.4809028 132.093569,36.4809028 C132.682328,36.4809028 133.229953,36.337675 133.736459,36.0512153 C134.242965,35.7647555 134.602276,35.4153666 134.814403,35.0030382 C135.026529,34.5907097 135.132591,34.0546908 135.132591,33.3949653 L135.132591,32.5486111 Z M142.535337,35.2829861 L147.782196,34.7881944 C147.998652,35.4131976 148.301685,35.8602417 148.691306,36.1293403 C149.080926,36.3984388 149.600412,36.5329861 150.249779,36.5329861 C150.959753,36.5329861 151.509542,36.3810779 151.899162,36.0772569 C152.2022,35.8515614 152.353717,35.5694461 152.353717,35.2309028 C152.353717,34.8489564 152.154581,34.5538205 151.756302,34.3454861 C151.470581,34.1979159 150.712997,34.0156261 149.483529,33.7986111 C147.647985,33.4774289 146.373081,33.1801229 145.658777,32.906684 C144.944473,32.6332452 144.342736,32.1710102 143.853546,31.5199653 C143.364356,30.8689204 143.119765,30.1267403 143.119765,29.2934028 C143.119765,28.3819399 143.383837,27.5963575 143.911989,26.9366319 C144.44014,26.2769064 145.16742,25.7842898 146.093851,25.4587674 C147.020281,25.1332449 148.262718,24.9704861 149.821198,24.9704861 C151.466261,24.9704861 152.680559,25.0963529 153.464129,25.3480903 C154.247698,25.5998276 154.901385,25.9904487 155.425207,26.5199653 C155.94903,27.0494818 156.384099,27.7656205 156.730428,28.6684028 L151.717341,29.1631944 C151.587467,28.7204839 151.371015,28.3949663 151.067977,28.1866319 C150.652382,27.9088528 150.150212,27.7699653 149.561453,27.7699653 C148.964035,27.7699653 148.528966,27.876301 148.256232,28.0889757 C147.983498,28.3016504 147.847133,28.5598943 147.847133,28.8637153 C147.847133,29.2022586 148.020295,29.4583325 148.366624,29.6319444 C148.712953,29.8055564 149.466207,29.9618049 150.626409,30.1006944 C152.384029,30.3003482 153.691402,30.5781232 154.548566,30.9340278 C155.405731,31.2899323 156.061582,31.7977398 156.516138,32.4574653 C156.970695,33.1171908 157.19797,33.8420099 157.19797,34.6319444 C157.19797,35.4305595 156.957708,36.2074615 156.477177,36.9626736 C155.996645,37.7178857 155.239062,38.3190082 154.204404,38.766059 C153.169746,39.2131099 151.76064,39.4366319 149.977046,39.4366319 C147.457502,39.4366319 145.663111,39.0763925 144.59382,38.3559028 C143.52453,37.6354131 142.838375,36.6111178 142.535337,35.2829861 Z M158.782418,35.2829861 L164.029277,34.7881944 C164.245732,35.4131976 164.548766,35.8602417 164.938386,36.1293403 C165.328006,36.3984388 165.847492,36.5329861 166.496859,36.5329861 C167.206833,36.5329861 167.756623,36.3810779 168.146243,36.0772569 C168.449281,35.8515614 168.600797,35.5694461 168.600797,35.2309028 C168.600797,34.8489564 168.401661,34.5538205 168.003383,34.3454861 C167.717661,34.1979159 166.960078,34.0156261 165.73061,33.7986111 C163.895066,33.4774289 162.620161,33.1801229 161.905857,32.906684 C161.191554,32.6332452 160.589816,32.1710102 160.100626,31.5199653 C159.611436,30.8689204 159.366845,30.1267403 159.366845,29.2934028 C159.366845,28.3819399 159.630917,27.5963575 160.159069,26.9366319 C160.687221,26.2769064 161.414501,25.7842898 162.340931,25.4587674 C163.267361,25.1332449 164.509798,24.9704861 166.068279,24.9704861 C167.713342,24.9704861 168.92764,25.0963529 169.711209,25.3480903 C170.494779,25.5998276 171.148465,25.9904487 171.672288,26.5199653 C172.19611,27.0494818 172.63118,27.7656205 172.977509,28.6684028 L167.964421,29.1631944 C167.834548,28.7204839 167.618095,28.3949663 167.315057,28.1866319 C166.899462,27.9088528 166.397293,27.7699653 165.808533,27.7699653 C165.211116,27.7699653 164.776046,27.876301 164.503312,28.0889757 C164.230578,28.3016504 164.094213,28.5598943 164.094213,28.8637153 C164.094213,29.2022586 164.267375,29.4583325 164.613704,29.6319444 C164.960033,29.8055564 165.713288,29.9618049 166.87349,30.1006944 C168.63111,30.3003482 169.938482,30.5781232 170.795647,30.9340278 C171.652811,31.2899323 172.308662,31.7977398 172.763219,32.4574653 C173.217776,33.1171908 173.445051,33.8420099 173.445051,34.6319444 C173.445051,35.4305595 173.204789,36.2074615 172.724257,36.9626736 C172.243725,37.7178857 171.486142,38.3190082 170.451484,38.766059 C169.416826,39.2131099 168.007721,39.4366319 166.224126,39.4366319 C163.704582,39.4366319 161.910192,39.0763925 160.840901,38.3559028 C159.77161,37.6354131 159.085456,36.6111178 158.782418,35.2829861 Z M176.159391,20.0225694 L181.445212,20.0225694 L181.445212,23.6293403 L176.159391,23.6293403 L176.159391,20.0225694 Z M176.159391,25.2829861 L181.445212,25.2829861 L181.445212,39.1111111 L176.159391,39.1111111 L176.159391,25.2829861 Z M183.886819,35.2829861 L189.133678,34.7881944 C189.350134,35.4131976 189.653167,35.8602417 190.042788,36.1293403 C190.432408,36.3984388 190.951893,36.5329861 191.60126,36.5329861 C192.311235,36.5329861 192.861024,36.3810779 193.250644,36.0772569 C193.553682,35.8515614 193.705199,35.5694461 193.705199,35.2309028 C193.705199,34.8489564 193.506063,34.5538205 193.107784,34.3454861 C192.822063,34.1979159 192.064479,34.0156261 190.835011,33.7986111 C188.999467,33.4774289 187.724563,33.1801229 187.010259,32.906684 C186.295955,32.6332452 185.694218,32.1710102 185.205028,31.5199653 C184.715838,30.8689204 184.471247,30.1267403 184.471247,29.2934028 C184.471247,28.3819399 184.735319,27.5963575 185.263471,26.9366319 C185.791622,26.2769064 186.518902,25.7842898 187.445333,25.4587674 C188.371763,25.1332449 189.6142,24.9704861 191.17268,24.9704861 C192.817743,24.9704861 194.032041,25.0963529 194.815611,25.3480903 C195.59918,25.5998276 196.252867,25.9904487 196.776689,26.5199653 C197.300512,27.0494818 197.735581,27.7656205 198.08191,28.6684028 L193.068822,29.1631944 C192.938949,28.7204839 192.722497,28.3949663 192.419459,28.1866319 C192.003864,27.9088528 191.501694,27.7699653 190.912935,27.7699653 C190.315517,27.7699653 189.880448,27.876301 189.607714,28.0889757 C189.33498,28.3016504 189.198615,28.5598943 189.198615,28.8637153 C189.198615,29.2022586 189.371777,29.4583325 189.718106,29.6319444 C190.064435,29.8055564 190.817689,29.9618049 191.977891,30.1006944 C193.735511,30.3003482 195.042884,30.5781232 195.900048,30.9340278 C196.757213,31.2899323 197.413064,31.7977398 197.86762,32.4574653 C198.322177,33.1171908 198.549452,33.8420099 198.549452,34.6319444 C198.549452,35.4305595 198.30919,36.2074615 197.828659,36.9626736 C197.348127,37.7178857 196.590544,38.3190082 195.555886,38.766059 C194.521228,39.2131099 193.112122,39.4366319 191.328528,39.4366319 C188.808984,39.4366319 187.014593,39.0763925 185.945302,38.3559028 C184.876011,37.6354131 184.189857,36.6111178 183.886819,35.2829861 Z M207.445735,20.0225694 L207.445735,25.2829861 L210.354885,25.2829861 L210.354885,29.1501736 L207.445735,29.1501736 L207.445735,34.0590278 C207.445735,34.6493085 207.502013,35.0399296 207.61457,35.2309028 C207.787734,35.5260431 208.090768,35.6736111 208.523679,35.6736111 C208.913299,35.6736111 209.458759,35.560765 210.160076,35.3350694 L210.549694,38.9939236 C209.242302,39.2803834 208.02151,39.4236111 206.887283,39.4236111 C205.571232,39.4236111 204.601525,39.254342 203.978133,38.9157986 C203.354741,38.5772553 202.893697,38.0629375 202.594988,37.3728299 C202.29628,36.6827222 202.146927,35.5651119 202.146927,34.0199653 L202.146927,29.1501736 L200.198836,29.1501736 L200.198836,25.2829861 L202.146927,25.2829861 L202.146927,22.7439236 L207.445735,20.0225694 Z M217.692695,29.7621528 L212.640645,29.2282986 C212.831126,28.3428775 213.106021,27.6462699 213.465337,27.1384549 C213.824653,26.6306398 214.341975,26.190106 215.017316,25.8168403 C215.502177,25.5477417 216.16885,25.3394105 217.017357,25.1918403 C217.865863,25.0442701 218.783621,24.9704861 219.770659,24.9704861 C221.355114,24.9704861 222.627854,25.0594609 223.588918,25.2374132 C224.549981,25.4153655 225.350855,25.7864555 225.991563,26.3506944 C226.441791,26.7413214 226.796773,27.2947013 227.05652,28.0108507 C227.316267,28.7270001 227.446138,29.410587 227.446138,30.0616319 L227.446138,36.1684028 C227.446138,36.8194477 227.487264,37.3294252 227.569517,37.6983507 C227.65177,38.0672762 227.831426,38.5381916 228.108489,39.1111111 L223.14735,39.1111111 C222.948211,38.7552066 222.81834,38.4839419 222.757732,38.297309 C222.697124,38.1106762 222.636518,37.8177103 222.57591,37.4184028 C221.883252,38.0868089 221.194933,38.5642347 220.510933,38.8506944 C219.575845,39.2326408 218.489254,39.4236111 217.251128,39.4236111 C215.606065,39.4236111 214.357134,39.0416705 213.504299,38.2777778 C212.651464,37.5138851 212.225052,36.5720542 212.225052,35.4522569 C212.225052,34.4019045 212.532415,33.5381978 213.147149,32.8611111 C213.761883,32.1840244 214.896094,31.6805572 216.549815,31.3506944 C218.532549,30.9513869 219.818276,30.6714418 220.407035,30.5108507 C220.995795,30.3502596 221.619178,30.1397582 222.277203,29.8793403 C222.277203,29.2282954 222.143002,28.7725707 221.874597,28.5121528 C221.606192,28.2517348 221.134326,28.1215278 220.458984,28.1215278 C219.593162,28.1215278 218.943805,28.2604153 218.510893,28.5381944 C218.173222,28.7552094 217.900492,29.1631914 217.692695,29.7621528 Z M222.277203,32.5486111 C221.549912,32.8090291 220.792328,33.0390615 220.00443,33.2387153 C218.93081,33.525175 218.251149,33.8072903 217.965428,34.0850694 C217.671048,34.3715292 217.52386,34.6970468 217.52386,35.0616319 C217.52386,35.4783007 217.668883,35.8190091 217.958934,36.0837674 C218.248985,36.3485256 218.675396,36.4809028 219.238181,36.4809028 C219.82694,36.4809028 220.374565,36.337675 220.881071,36.0512153 C221.387577,35.7647555 221.746888,35.4153666 221.959015,35.0030382 C222.171141,34.5907097 222.277203,34.0546908 222.277203,33.3949653 L222.277203,32.5486111 Z M230.615033,25.2829861 L235.53721,25.2829861 L235.53721,27.5355903 C236.273159,26.6154468 237.017756,25.9579013 237.771021,25.562934 C238.524287,25.1679668 239.442045,24.9704861 240.524323,24.9704861 C241.987564,24.9704861 243.132597,25.4066797 243.959458,26.2790799 C244.786318,27.1514801 245.199742,28.4991228 245.199742,30.3220486 L245.199742,39.1111111 L239.887947,39.1111111 L239.887947,31.5069444 C239.887947,30.6388845 239.727772,30.0247414 239.407418,29.6644965 C239.087063,29.3042517 238.636842,29.1241319 238.056741,29.1241319 C237.416033,29.1241319 236.896547,29.3671851 236.498268,29.8532986 C236.09999,30.3394122 235.900854,31.2117993 235.900854,32.4704861 L235.900854,39.1111111 L230.615033,39.1111111 L230.615033,25.2829861 Z M254.732402,20.0225694 L254.732402,25.2829861 L257.641551,25.2829861 L257.641551,29.1501736 L254.732402,29.1501736 L254.732402,34.0590278 C254.732402,34.6493085 254.788679,35.0399296 254.901236,35.2309028 C255.074401,35.5260431 255.377434,35.6736111 255.810346,35.6736111 C256.199966,35.6736111 256.745426,35.560765 257.446742,35.3350694 L257.83636,38.9939236 C256.528968,39.2803834 255.308177,39.4236111 254.173949,39.4236111 C252.857899,39.4236111 251.888192,39.254342 251.264799,38.9157986 C250.641407,38.5772553 250.180364,38.0629375 249.881655,37.3728299 C249.582946,36.6827222 249.433594,35.5651119 249.433594,34.0199653 L249.433594,29.1501736 L247.485503,29.1501736 L247.485503,25.2829861 L249.433594,25.2829861 L249.433594,22.7439236 L254.732402,20.0225694 Z" id="omp-assistant" fill="#444444"></path>
                <path d="M39.1808704,35.0844696 L48.4420431,37.89105 C47.8199629,40.4949459 46.8402012,42.6700239 45.5027288,44.4163493 C44.1652564,46.1626747 42.5051047,47.4801951 40.5222241,48.36895 C38.5393435,49.2577049 36.0160685,49.7020757 32.9523235,49.7020757 C29.2353943,49.7020757 26.1989108,49.1602552 23.8427821,48.0765979 C21.4866533,46.9929406 19.4532591,45.0868239 17.7425386,42.3581904 C16.031818,39.629557 15.1764706,36.1369585 15.1764706,31.8802904 C15.1764706,26.2047328 16.6811045,21.8428828 19.6904175,18.7946094 C22.6997305,15.746336 26.957028,14.2222222 32.4624378,14.2222222 C36.7703432,14.2222222 40.1567415,15.0953718 42.6217343,16.8416972 C45.0867271,18.5880226 46.9179482,21.2698393 48.1154526,24.8872276 L38.7842962,26.9687747 C38.4577041,25.9240979 38.1155651,25.160092 37.757869,24.6767341 C37.1668928,23.8659402 36.4437354,23.2422619 35.5883752,22.8056805 C34.7330149,22.3690992 33.7765809,22.1508118 32.7190446,22.1508118 C30.3240358,22.1508118 28.4889267,23.1175131 27.2136623,25.0509448 C26.249438,26.4854264 25.7673331,28.7384642 25.7673331,31.8101259 C25.7673331,35.6146205 26.3427486,38.2223753 27.493597,39.6334686 C28.6444454,41.0445619 30.2618296,41.750098 32.3457983,41.750098 C34.367559,41.750098 35.8955206,41.1809916 36.9297289,40.0427616 C37.9639372,38.9045317 38.7143102,37.2517842 39.1808704,35.0844696 Z" id="C" fill="#444444"></path>
            </g>
        </g>
    </g>
</svg>